# xmcd CD database file
# Copyright (C) 1996 Ti Kan
#
# Track frame offsets:
# 	182
# 	15975
# 	29357
# 	45132
# 	59657
# 	74382
# 	88507
# 	104935
# 	120835
# 	136000
# 	150760
# 	166360
#
# Disc length: 2408 seconds
#
# Revision: 1
# Processed by: cddbd v1.4b41PL1 Copyright (c) Steve Scherf et al.
# Submitted via: DiscPlay 3.3
#
DISCID=8a09660c
DTITLE=Bellamy Brothers - Rip Off The Knob
DYEAR=1900
DGENRE=
TTITLE0=Rip Off The Knob
TTITLE1=Not
TTITLE2=Heartbreak Overload
TTITLE3=Stayin' In Love
TTITLE4=Bubba
TTITLE5=The Andy Griffith Show
TTITLE6=Feelin' The Feelin'
TTITLE7=Crazy From The Heart
TTITLE8=I Need More Of You
TTITLE9=Lovers Live Longer
TTITLE10=Sugar Daddy
TTITLE11=Reggae Cowboy
EXTD=
EXTT0=
EXTT1=
EXTT2=
EXTT3=
EXTT4=
EXTT5=
EXTT6=
EXTT7=
EXTT8=
EXTT9=
EXTT10=
EXTT11=
PLAYORDER=
